<svg width="202" height="202" viewBox="0 0 202 202" fill="none" xmlns="http://www.w3.org/2000/svg">
<g clip-path="url(#clip0_1001_9)">
<path d="M154.15 0.511108H47.4474C21.4488 0.511108 0.372803 21.5871 0.372803 47.5857V154.288C0.372803 180.287 21.4488 201.363 47.4474 201.363H154.15C180.148 201.363 201.224 180.287 201.224 154.288V47.5857C201.224 21.5871 180.148 0.511108 154.15 0.511108Z" fill="#242938"/>
<path d="M66.8614 88.353C66.8614 90.2627 67.0679 91.8106 67.4292 92.9467C67.8422 94.082 68.3583 95.3208 69.081 96.6632C69.339 97.0759 69.4423 97.4886 69.4423 97.8503C69.4423 98.3666 69.1326 98.8828 68.4616 99.3983L65.2097 101.567C64.7452 101.876 64.2806 102.031 63.8677 102.031C63.3516 102.031 62.8354 101.773 62.3192 101.309C61.5965 100.534 60.9771 99.7082 60.461 98.8828C59.9448 98.0049 59.4287 97.0242 58.8609 95.8371C54.8347 100.586 49.7763 102.96 43.6855 102.96C39.3497 102.96 35.8914 101.721 33.3622 99.2437C30.8329 96.766 29.5425 93.463 29.5425 89.3337C29.5425 84.9456 31.091 81.3844 34.2396 78.7003C37.3883 76.0162 41.5692 74.6742 46.8857 74.6742C48.6408 74.6742 50.4473 74.829 52.3571 75.0871C54.2669 75.3452 56.2284 75.7581 58.2931 76.2227V72.4547C58.2931 68.5318 57.4672 65.7961 55.8671 64.196C54.2153 62.5959 51.428 61.8216 47.4535 61.8216C45.647 61.8216 43.7887 62.0281 41.8789 62.4926C39.9691 62.9572 38.1109 63.525 36.3043 64.2476C35.4784 64.6089 34.859 64.8153 34.4977 64.9186C34.1364 65.0218 33.8783 65.0735 33.6718 65.0735C32.9492 65.0735 32.5879 64.5573 32.5879 63.4733V60.9441C32.5879 60.1182 32.6911 59.4988 32.9492 59.1375C33.2073 58.7762 33.6718 58.4149 34.3945 58.0536C36.2011 57.1245 38.369 56.3502 40.8982 55.7308C43.4274 55.0598 46.1115 54.7501 48.9504 54.7501C55.0928 54.7501 59.5835 56.1437 62.474 58.931C65.313 61.7184 66.7583 65.9509 66.7583 71.6288V88.353H66.8614ZM45.905 96.1988C47.6084 96.1988 49.3633 95.8889 51.2215 95.2691C53.0798 94.65 54.7315 93.514 56.1251 91.966C56.9511 90.9853 57.5704 89.901 57.8802 88.6621C58.1898 87.4233 58.3963 85.9263 58.3963 84.172V82.0034C56.8994 81.6425 55.2993 81.3326 53.6475 81.1263C51.9958 80.9199 50.3957 80.8164 48.7955 80.8164C45.3372 80.8164 42.808 81.488 41.1047 82.8814C39.4013 84.2748 38.5754 86.2362 38.5754 88.8175C38.5754 91.2434 39.1949 93.0495 40.4852 94.2883C41.7241 95.579 43.5307 96.1988 45.905 96.1988ZM87.3532 101.773C86.4243 101.773 85.8045 101.618 85.3918 101.257C84.9791 100.947 84.6174 100.224 84.3083 99.2437L72.178 59.344C71.8683 58.3117 71.7135 57.6406 71.7135 57.2793C71.7135 56.4534 72.1264 55.9889 72.9522 55.9889H78.0107C78.9912 55.9889 79.6628 56.1437 80.0237 56.505C80.4364 56.8148 80.7463 57.5374 81.0562 58.5181L89.7274 92.6886L97.7802 58.5181C98.0384 57.4858 98.3475 56.8148 98.761 56.505C99.1736 56.1954 99.8962 55.9889 100.825 55.9889H104.954C105.935 55.9889 106.607 56.1437 107.019 56.505C107.432 56.8148 107.794 57.5374 108 58.5181L116.156 93.1013L125.085 58.5181C125.395 57.4858 125.757 56.8148 126.118 56.505C126.53 56.1954 127.202 55.9889 128.131 55.9889H132.931C133.757 55.9889 134.221 56.4018 134.221 57.2793C134.221 57.5374 134.17 57.7955 134.118 58.1052C134.067 58.4149 133.963 58.8278 133.757 59.3956L121.318 99.2955C121.008 100.328 120.646 100.999 120.233 101.309C119.821 101.618 119.149 101.825 118.272 101.825H113.833C112.852 101.825 112.181 101.67 111.768 101.309C111.355 100.947 110.994 100.276 110.788 99.2437L102.787 65.9509L94.8381 99.1919C94.58 100.224 94.27 100.895 93.8574 101.257C93.4439 101.618 92.7213 101.773 91.7924 101.773H87.3532ZM153.681 103.167C150.997 103.167 148.313 102.857 145.732 102.238C143.151 101.618 141.138 100.947 139.796 100.173C138.97 99.7082 138.402 99.1919 138.196 98.7275C137.99 98.263 137.886 97.7467 137.886 97.2823V94.65C137.886 93.5657 138.299 93.0495 139.073 93.0495C139.383 93.0495 139.693 93.1013 140.002 93.2048C140.312 93.3076 140.777 93.514 141.293 93.7211C143.048 94.4947 144.958 95.1145 146.971 95.5272C149.036 95.9407 151.048 96.147 153.113 96.147C156.365 96.147 158.894 95.579 160.649 94.4437C162.404 93.3076 163.333 91.6561 163.333 89.5401C163.333 88.0949 162.869 86.907 161.94 85.9263C161.011 84.9456 159.256 84.0684 156.726 83.2423L149.242 80.9199C145.474 79.7329 142.686 77.9776 140.983 75.6549C139.28 73.3838 138.402 70.8545 138.402 68.1704C138.402 66.0026 138.867 64.0927 139.796 62.441C140.725 60.7892 141.964 59.3439 143.512 58.2084C145.061 57.0212 146.816 56.1437 148.88 55.5243C150.945 54.9049 153.113 54.6469 155.385 54.6469C156.52 54.6469 157.707 54.6985 158.843 54.8534C160.03 55.0081 161.114 55.2146 162.198 55.4211C163.23 55.6792 164.211 55.9372 165.14 56.247C166.069 56.5567 166.792 56.8663 167.308 57.1761C168.03 57.589 168.547 58.0019 168.857 58.4665C169.166 58.8794 169.321 59.4472 169.321 60.1699V62.5959C169.321 63.6798 168.908 64.2476 168.134 64.2476C167.72 64.2476 167.05 64.0411 166.173 63.6282C163.23 62.2861 159.927 61.6151 156.262 61.6151C153.32 61.6151 150.997 62.0797 149.397 63.0604C147.797 64.0411 146.971 65.538 146.971 67.6543C146.971 69.0996 147.487 70.3384 148.52 71.3191C149.551 72.2998 151.462 73.2805 154.198 74.158L161.527 76.4807C165.243 77.668 167.928 79.3194 169.527 81.4362C171.127 83.5522 171.901 85.9781 171.901 88.6621C171.901 90.8817 171.437 92.8949 170.56 94.65C169.631 96.4051 168.392 97.9531 166.792 99.1919C165.192 100.483 163.281 101.411 161.063 102.083C158.739 102.806 156.314 103.167 153.681 103.167Z" fill="white"/>
<path fill-rule="evenodd" clip-rule="evenodd" d="M163.437 128.253C146.455 140.796 121.782 147.454 100.567 147.454C70.836 147.454 44.0469 136.459 23.813 118.187C22.213 116.742 23.6582 114.781 25.5681 115.916C47.4536 128.613 74.4492 136.305 102.374 136.305C121.214 136.305 141.913 132.382 160.959 124.33C163.798 123.039 166.224 126.188 163.437 128.253Z" fill="#FF9900"/>
<path fill-rule="evenodd" clip-rule="evenodd" d="M170.508 120.201C168.34 117.413 156.159 118.858 150.635 119.529C148.984 119.736 148.726 118.29 150.223 117.207C159.926 110.393 175.876 112.355 177.735 114.625C179.593 116.949 177.218 132.898 168.134 140.538C166.74 141.725 165.398 141.105 166.017 139.557C168.082 134.447 172.676 122.936 170.508 120.201Z" fill="#FF9900"/>
</g>
<defs>
<clipPath id="clip0_1001_9">
<rect width="200.851" height="200.851" fill="white" transform="translate(0.372803 0.511108)"/>
</clipPath>
</defs>
</svg>
