<svg width="202" height="201" viewBox="0 0 202 201" fill="none" xmlns="http://www.w3.org/2000/svg">
<g clip-path="url(#clip0_1001_125)">
<path d="M154.522 0.0220947H47.8202C21.8216 0.0220947 0.745605 21.0981 0.745605 47.0966V153.799C0.745605 179.798 21.8216 200.874 47.8202 200.874H154.522C180.521 200.874 201.597 179.798 201.597 153.799V47.0966C201.597 21.0981 180.521 0.0220947 154.522 0.0220947Z" fill="#394AAB"/>
<path d="M105.88 25.9128C133.452 25.9128 157.526 40.8875 170.42 63.1458L170.294 62.9315L137.853 81.6107C131.461 70.7888 119.744 63.4856 106.302 63.3352L105.88 63.3328C85.3817 63.3328 68.764 79.9497 68.764 100.447C68.764 107.15 70.5511 113.434 73.659 118.861C80.0568 130.029 92.0828 137.563 105.88 137.563C119.76 137.563 131.855 129.934 138.221 118.646L138.066 118.916L170.458 137.682C157.706 159.752 133.962 174.68 106.71 174.978L105.88 174.982C78.2193 174.982 54.0774 159.915 41.2156 137.539C34.9367 126.616 31.3441 113.952 31.3441 100.447C31.3441 59.2835 64.7139 25.9128 105.88 25.9128Z" fill="white"/>
</g>
<defs>
<clipPath id="clip0_1001_125">
<rect width="200.851" height="200.851" fill="white" transform="translate(0.745605 0.0220947)"/>
</clipPath>
</defs>
</svg>
