<svg width="201" height="201" viewBox="0 0 201 201" fill="none" xmlns="http://www.w3.org/2000/svg">
<g clip-path="url(#clip0_1001_129)">
<path d="M153.895 0.0220947H47.1931C21.1945 0.0220947 0.11853 21.0981 0.11853 47.0966V153.799C0.11853 179.798 21.1945 200.874 47.1931 200.874H153.895C179.894 200.874 200.97 179.798 200.97 153.799V47.0966C200.97 21.0981 179.894 0.0220947 153.895 0.0220947Z" fill="#00599C"/>
<path d="M87.0172 165.189C51.2142 165.189 22.0865 136.061 22.0865 100.259C22.0865 64.4556 51.2142 35.3279 87.0172 35.3279C110.119 35.3279 131.666 47.7601 143.246 67.7727L115.146 84.0336C109.35 74.0162 98.5709 67.7931 87.0172 67.7931C69.1152 67.7931 54.5517 82.3569 54.5517 100.259C54.5517 118.159 69.1152 132.724 87.0172 132.724C98.5717 132.724 109.351 126.5 115.147 116.481L143.248 132.742C131.667 152.756 110.121 165.189 87.0172 165.189Z" fill="white"/>
<path d="M151.947 96.6512H144.732V89.4363H137.519V96.6512H130.304V103.865H137.519V111.08H144.732V103.865H151.947V96.6512Z" fill="white"/>
<path d="M179.002 96.6512H171.787V89.4363H164.573V96.6512H157.358V103.865H164.573V111.08H171.787V103.865H179.002V96.6512Z" fill="white"/>
</g>
<defs>
<clipPath id="clip0_1001_129">
<rect width="200.851" height="200.851" fill="white" transform="translate(0.11853 0.0220947)"/>
</clipPath>
</defs>
</svg>
