<svg width="201" height="201" viewBox="0 0 201 201" fill="none" xmlns="http://www.w3.org/2000/svg">
<g clip-path="url(#clip0_1001_85)">
<path d="M153.895 0H47.1931C21.1945 0 0.11853 21.076 0.11853 47.0746V153.777C0.11853 179.775 21.1945 200.851 47.1931 200.851H153.895C179.894 200.851 200.97 179.775 200.97 153.777V47.0746C200.97 21.076 179.894 0 153.895 0Z" fill="#0277BD"/>
<path d="M42.2914 80.5377L44.5375 105.599H100.619V80.5377H42.2914Z" fill="#EBEBEB"/>
<path d="M100.619 29.814H100.532H37.7781L40.0562 54.8751H100.619V29.814Z" fill="#EBEBEB"/>
<path d="M100.618 171.697V145.623L100.509 145.652L72.5983 138.117L70.8141 118.129H57.2517H45.6569L49.1678 157.478L100.503 171.729L100.618 171.697Z" fill="#EBEBEB"/>
<path d="M131.392 105.599L128.483 138.1L100.532 145.645V171.717L151.909 157.479L152.285 153.244L158.174 87.2677L158.786 80.5376L163.31 29.814H100.532V54.8751H135.845L133.565 80.5376H100.532V105.599H131.392Z" fill="white"/>
</g>
<defs>
<clipPath id="clip0_1001_85">
<rect width="200.851" height="200.851" fill="white" transform="translate(0.11853)"/>
</clipPath>
</defs>
</svg>
