<svg width="201" height="201" viewBox="0 0 201 201" fill="none" xmlns="http://www.w3.org/2000/svg">
<g clip-path="url(#clip0_1001_109)">
<path d="M153.777 0.0219727H47.0746C21.076 0.0219727 0 21.098 0 47.0965V153.799C0 179.797 21.076 200.873 47.0746 200.873H153.777C179.775 200.873 200.851 179.797 200.851 153.799V47.0965C200.851 21.098 179.775 0.0219727 153.777 0.0219727Z" fill="#2396ED"/>
<path d="M110.772 95.8366H127.026V81.1305H110.772V95.8366ZM91.4227 95.8366H107.676V81.1305H91.4227V95.8366ZM72.4598 95.8366H88.7135V81.1305H72.4598V95.8366ZM53.497 95.8366H69.3638V81.1305H53.497V95.8366ZM34.1473 95.8366H50.401V81.1305H34.1473V95.8366ZM53.497 78.0348H69.3638V63.3289H53.497V78.0348ZM72.4598 78.0348H88.7135V63.3289H72.4598V78.0348ZM91.4227 78.0348H107.676V63.3289H91.4227V78.0348ZM91.4227 60.233H107.676V45.5272H91.4227V60.233ZM178.883 89.2579C178.883 89.2579 171.917 82.6785 157.599 85.0008C156.051 73.7778 144.054 67.1989 144.054 67.1989C144.054 67.1989 132.831 80.7437 140.958 95.8366C138.636 96.9978 134.766 98.5457 128.961 98.5457H22.5374C20.6024 105.899 20.6024 154.659 74.0077 154.659C112.32 154.659 140.958 136.858 154.503 104.35C174.626 105.899 178.883 89.2579 178.883 89.2579Z" fill="white"/>
</g>
<defs>
<clipPath id="clip0_1001_109">
<rect width="200.851" height="200.851" fill="white" transform="translate(0 0.0219727)"/>
</clipPath>
</defs>
</svg>
