<svg width="201" height="202" viewBox="0 0 201 202" fill="none" xmlns="http://www.w3.org/2000/svg">
<g clip-path="url(#clip0_1001_21)">
<path d="M153.895 0.511108H47.1931C21.1945 0.511108 0.11853 21.5871 0.11853 47.5857V154.288C0.11853 180.287 21.1945 201.363 47.1931 201.363H153.895C179.894 201.363 200.97 180.287 200.97 154.288V47.5857C200.97 21.5871 179.894 0.511108 153.895 0.511108Z" fill="#242938"/>
<path d="M121.098 180.848H123.033L154.621 165.052L155.147 164.309V38.2245L154.621 37.4775L123.033 21.6947H121.074L121.098 180.848Z" fill="#5294CF"/>
<path d="M79.9898 180.848H78.0278L46.4665 165.052L45.8261 163.95L45.5011 38.8666L46.4665 37.4775L78.0278 21.6947H80.0141L79.9898 180.848Z" fill="#1F5B98"/>
<path d="M78.0836 21.6947H123.003V180.848H78.0836V21.6947Z" fill="#2D72B8"/>
<path d="M171.156 97.6954L170.088 97.4585L154.848 96.0376L154.621 96.1498L123.005 94.8858H78.0835L46.4665 96.1498V72.0404L46.4334 72.058L46.4665 71.9874L78.0835 64.6615H123.005L154.621 71.9874L166.244 78.1654V74.1935L171.156 73.6562L170.648 72.6643L155.095 61.5435L154.621 61.6974L123.005 51.9006H78.0835L46.4665 61.6974V37.477L29.9323 56.8472V73.7643L30.0603 73.6716L34.8442 74.1935V78.2471L29.9323 80.8757V97.7087L30.0603 97.6954L34.8442 97.766V104.831L30.7167 104.892L29.9323 104.818V121.657L34.8442 124.298V128.398L30.1381 128.918L29.9323 128.764V145.678L46.4665 165.051V140.833L78.0835 150.63H123.005L154.714 140.804L155.136 140.989L170.484 130.032L171.156 128.94L166.244 128.398V124.38L165.6 124.123L155.095 129.786L154.714 130.58L123.005 137.864V137.873H78.0835V137.864L46.4665 130.55V106.352L78.0835 107.612V107.642H123.005L154.621 106.352L155.341 106.683L170.114 105.411L171.156 104.902L166.244 104.831V97.766L171.156 97.6954Z" fill="#1A476F"/>
<path d="M154.621 140.833V165.052L171.156 145.679V128.875L154.717 140.805L154.621 140.833Z" fill="#2D72B8"/>
<path d="M154.621 130.603L154.717 130.581L171.156 121.739V104.832L154.621 106.352V130.603Z" fill="#2D72B8"/>
<path d="M154.717 72.0098L154.621 71.9877V96.1499L171.156 97.6955V80.7957L154.717 72.0098Z" fill="#2D72B8"/>
<path d="M154.717 61.7923L171.156 73.6562V56.8517L154.621 37.477V61.6974L154.717 61.7305V61.7923Z" fill="#2D72B8"/>
</g>
<defs>
<clipPath id="clip0_1001_21">
<rect width="200.851" height="200.851" fill="white" transform="translate(0.11853 0.511108)"/>
</clipPath>
</defs>
</svg>
