<svg width="201" height="202" viewBox="0 0 201 202" fill="none" xmlns="http://www.w3.org/2000/svg">
<g clip-path="url(#clip0_1001_4)">
<path d="M153.777 0.511108H47.0746C21.076 0.511108 0 21.5871 0 47.5857V154.288C0 180.287 21.076 201.363 47.0746 201.363H153.777C179.775 201.363 200.851 180.287 200.851 154.288V47.5857C200.851 21.5871 179.775 0.511108 153.777 0.511108Z" fill="#242938"/>
<path d="M178.883 144.039C176.599 144.905 174.078 144.902 171.795 144.035C169.512 143.166 167.626 141.492 166.494 139.328C159.383 128.684 151.531 118.519 143.985 108.137L140.712 103.775C131.726 115.815 122.739 127.375 114.538 139.372C113.469 141.44 111.686 143.049 109.519 143.9C107.352 144.751 104.95 144.785 102.76 143.996L136.481 98.7582L105.115 57.8823C107.373 57.067 109.843 57.0558 112.108 57.8506C114.373 58.6454 116.294 60.1974 117.548 62.2447C124.833 72.8889 132.904 83.0534 140.93 93.8287C149.001 83.1405 156.984 72.9325 164.444 62.3756C165.518 60.341 167.303 58.7723 169.459 57.968C171.614 57.1636 173.991 57.1797 176.135 58.0132L163.964 74.154C158.511 81.3516 153.145 88.5933 147.474 95.6168C147.017 96.0263 146.651 96.5269 146.401 97.0871C146.151 97.6473 146.021 98.2537 146.021 98.8673C146.021 99.48 146.151 100.087 146.401 100.647C146.651 101.207 147.017 101.707 147.474 102.117C157.901 115.946 168.239 129.818 178.883 144.039Z" fill="white"/>
<path d="M21.9681 98.1906C22.8841 93.8284 23.4513 89.0731 24.7164 84.6237C32.2633 57.7951 63.0182 46.6273 84.1755 63.2481C96.5648 72.9762 99.6623 86.7617 99.0519 102.292H29.2533C28.1191 130.037 48.1424 146.788 73.7496 138.238C77.9035 136.752 81.6217 134.255 84.5694 130.973C87.517 127.69 89.6001 123.725 90.6318 119.435C91.9844 115.073 94.1655 114.332 98.3097 115.596C97.6271 120.907 95.7496 125.994 92.8176 130.475C89.8865 134.956 85.9769 138.713 81.384 141.465C73.795 145.616 65.0884 147.26 56.5088 146.163C47.9292 145.066 39.9163 141.284 33.6157 135.358C27.3825 128.35 23.6136 119.495 22.8841 110.144C22.8841 108.661 22.3171 107.177 22.0117 105.781C21.9826 103.193 21.9681 100.663 21.9681 98.1906ZM29.3405 96.3147H92.4646C92.0715 76.2044 79.3771 61.9394 62.4511 61.8085C43.6055 61.5468 30.1258 75.5064 29.2969 96.2276L29.3405 96.3147Z" fill="white"/>
</g>
<defs>
<clipPath id="clip0_1001_4">
<rect width="200.851" height="200.851" fill="white" transform="translate(0 0.511108)"/>
</clipPath>
</defs>
</svg>
