<svg width="202" height="201" viewBox="0 0 202 201" fill="none" xmlns="http://www.w3.org/2000/svg">
<g clip-path="url(#clip0_1001_145)">
<path d="M154.014 0.0220947H47.3116C21.3131 0.0220947 0.237061 21.0981 0.237061 47.0966V153.799C0.237061 179.798 21.3131 200.874 47.3116 200.874H154.014C180.012 200.874 201.089 179.798 201.089 153.799V47.0966C201.089 21.0981 180.012 0.0220947 154.014 0.0220947Z" fill="#049789"/>
<path d="M100.27 32.1897C62.8014 32.1897 32.4045 62.5865 32.4045 100.056C32.4045 137.525 62.8014 167.921 100.27 167.921C137.739 167.921 168.136 137.525 168.136 100.056C168.136 62.5865 137.739 32.1897 100.27 32.1897ZM96.7343 154.457V111.888H73.0696L107.07 45.6542V88.2233H129.851L96.7343 154.457Z" fill="white"/>
</g>
<defs>
<clipPath id="clip0_1001_145">
<rect width="200.851" height="200.851" fill="white" transform="translate(0.237061 0.0220947)"/>
</clipPath>
</defs>
</svg>
