<svg width="202" height="201" viewBox="0 0 202 201" fill="none" xmlns="http://www.w3.org/2000/svg">
<g clip-path="url(#clip0_1001_113)">
<path d="M154.15 0.0220947H47.4474C21.4488 0.0220947 0.372803 21.0981 0.372803 47.0966V153.799C0.372803 179.798 21.4488 200.874 47.4474 200.874H154.15C180.148 200.874 201.224 179.798 201.224 153.799V47.0966C201.224 21.0981 180.148 0.0220947 154.15 0.0220947Z" fill="#242938"/>
<mask id="mask0_1001_113" style="mask-type:luminance" maskUnits="userSpaceOnUse" x="48" y="21" width="105" height="158">
<path d="M152.863 21.9904H48.2319V178.906H152.863V21.9904Z" fill="white"/>
</mask>
<g mask="url(#mask0_1001_113)">
<path d="M74.3949 178.905C88.8314 178.905 100.547 167.189 100.547 152.753V126.6H74.3949C59.9587 126.6 48.2423 138.317 48.2423 152.753C48.2423 167.189 59.9587 178.905 74.3949 178.905Z" fill="#0ACF83"/>
<path d="M48.2423 100.448C48.2423 86.0115 59.9587 74.2952 74.3949 74.2952H100.547V126.6H74.3949C59.9587 126.6 48.2423 114.884 48.2423 100.448Z" fill="#A259FF"/>
<path d="M48.2414 48.1429C48.2414 33.7067 59.9578 21.9904 74.3939 21.9904H100.546V74.2955H74.3939C59.9578 74.2955 48.2414 62.5791 48.2414 48.1429Z" fill="#F24E1E"/>
<path d="M100.547 21.9904H126.7C141.136 21.9904 152.853 33.7067 152.853 48.1429C152.853 62.5791 141.136 74.2955 126.7 74.2955H100.547V21.9904Z" fill="#FF7262"/>
<path d="M152.853 100.448C152.853 114.884 141.136 126.6 126.7 126.6C112.264 126.6 100.547 114.884 100.547 100.448C100.547 86.0115 112.264 74.2952 126.7 74.2952C141.136 74.2952 152.853 86.0115 152.853 100.448Z" fill="#1ABCFE"/>
</g>
</g>
<defs>
<clipPath id="clip0_1001_113">
<rect width="200.851" height="200.851" fill="white" transform="translate(0.372803 0.0220947)"/>
</clipPath>
</defs>
</svg>
