<svg width="201" height="201" viewBox="0 0 201 201" fill="none" xmlns="http://www.w3.org/2000/svg">
<g clip-path="url(#clip0_1018_4861)">
<path d="M153.776 0H47.0742C21.0758 0 0 21.0758 0 47.0742V153.776C0 179.774 21.0758 200.85 47.0742 200.85H153.776C179.774 200.85 200.85 179.774 200.85 153.776V47.0742C200.85 21.0758 179.774 0 153.776 0Z" fill="#242938"/>
<path d="M126.323 72.4859L139.963 58.8459L140.872 53.1026C116.017 30.5015 76.5052 33.0643 54.099 58.45C47.8752 65.5007 43.2578 74.291 40.7957 83.3682L45.6808 82.6794L72.96 78.1814L75.066 76.0275C87.2002 62.7008 107.717 60.908 121.728 72.2468L126.323 72.4859Z" fill="#EA4335"/>
<path d="M159.393 82.9676C156.258 71.4219 149.822 61.0429 140.872 53.1034L121.728 72.2469C129.812 78.8517 134.417 88.8024 134.22 99.2396V102.638C143.629 102.638 151.257 110.265 151.257 119.675C151.257 129.085 143.629 136.522 134.22 136.522H100.096L96.7462 140.159V160.595L100.096 163.801H134.22C158.694 163.992 178.69 144.497 178.88 120.022C178.996 105.187 171.682 91.2785 159.393 82.9676Z" fill="#4285F4"/>
<path d="M66.0205 163.801H100.096V136.522H66.0205C63.5927 136.521 61.2414 135.999 59.0335 134.99L54.1992 136.474L40.4638 150.113L39.2673 154.756C46.9701 160.572 56.3684 163.843 66.0205 163.801Z" fill="#34A853"/>
<path d="M66.0206 75.3099C41.545 75.4558 21.8229 95.4156 21.9688 119.891C22.0503 133.558 28.4335 146.424 39.2674 154.756L59.0336 134.99C50.4579 131.116 46.6472 121.023 50.5216 112.449C54.3954 103.873 64.4882 100.063 73.0627 103.936C76.8415 105.643 79.8677 108.67 81.5749 112.449L101.341 92.6829C92.9308 81.6879 79.863 75.2603 66.0206 75.3099Z" fill="#FBBC05"/>
</g>
<defs>
<clipPath id="clip0_1018_4861">
<rect width="200.85" height="200.85" fill="white"/>
</clipPath>
</defs>
</svg>
