<svg width="201" height="201" viewBox="0 0 201 201" fill="none" xmlns="http://www.w3.org/2000/svg">
<g clip-path="url(#clip0_1018_4872)">
<path d="M153.776 0H47.0742C21.0758 0 0 21.0758 0 47.0742V153.776C0 179.774 21.0758 200.85 47.0742 200.85H153.776C179.774 200.85 200.85 179.774 200.85 153.776V47.0742C200.85 21.0758 179.774 0 153.776 0Z" fill="#F03C2E"/>
<mask id="mask0_1018_4872" style="mask-type:luminance" maskUnits="userSpaceOnUse" x="21" y="21" width="158" height="158">
<path d="M178.882 21.9679H21.968V178.882H178.882V21.9679Z" fill="white"/>
</mask>
<g mask="url(#mask0_1018_4872)">
<path d="M175.921 93.4376L107.413 24.9297C106.475 23.9911 105.361 23.2466 104.136 22.7387C102.909 22.2307 101.595 21.9692 100.268 21.9692C98.9417 21.9692 97.6275 22.2307 96.4012 22.7387C95.1757 23.2466 94.0616 23.9911 93.1241 24.9297L78.9037 39.15L96.9488 57.1951C101.146 55.724 105.952 56.7292 109.296 60.0735C110.888 61.6683 111.999 63.6787 112.503 65.875C113.007 68.0713 112.883 70.3651 112.144 72.4942L129.538 89.8874C133.745 88.4359 138.599 89.3719 141.958 92.7409C143.075 93.8581 143.961 95.184 144.565 96.6433C145.169 98.1026 145.48 99.6663 145.48 101.246C145.479 102.825 145.169 104.389 144.564 105.848C143.959 107.306 143.073 108.632 141.956 109.749C140.839 110.866 139.513 111.751 138.054 112.355C136.595 112.96 135.031 113.271 133.452 113.27C131.872 113.27 130.308 112.958 128.849 112.354C127.39 111.749 126.064 110.864 124.948 109.746C121.417 106.216 120.545 101.018 122.33 96.6684L106.109 80.4474V123.134C107.286 123.716 108.362 124.485 109.296 125.409C110.412 126.525 111.298 127.85 111.903 129.31C112.507 130.768 112.818 132.332 112.818 133.911C112.818 135.491 112.507 137.054 111.903 138.513C111.298 139.972 110.412 141.298 109.296 142.414C108.179 143.531 106.853 144.417 105.395 145.021C103.935 145.625 102.372 145.936 100.793 145.936C99.2139 145.936 97.6502 145.625 96.1917 145.021C94.7324 144.417 93.4065 143.531 92.2901 142.414C91.172 141.298 90.2855 139.973 89.6806 138.514C89.0749 137.055 88.7634 135.491 88.7634 133.911C88.7634 132.332 89.0749 130.768 89.6806 129.309C90.2855 127.85 91.172 126.524 92.2901 125.409C93.452 124.252 94.7418 123.374 96.2278 122.785V79.7021C94.796 79.1137 93.452 78.2461 92.2901 77.079C90.6017 75.3927 89.4538 73.2416 88.9925 70.9003C88.532 68.5589 88.7783 66.1333 89.701 63.9326L71.9012 46.1425L24.9251 93.0696C23.9858 94.0079 23.2407 95.122 22.7323 96.3483C22.2239 97.5746 21.9623 98.8888 21.9623 100.216C21.9623 101.544 22.2239 102.859 22.7323 104.085C23.2407 105.311 23.9858 106.425 24.9251 107.364L93.4379 175.866C94.3755 176.804 95.4895 177.549 96.715 178.057C97.9413 178.565 99.2555 178.826 100.582 178.826C101.909 178.826 103.223 178.565 104.449 178.057C105.675 177.549 106.789 176.804 107.726 175.866L175.921 107.78C176.86 106.842 177.605 105.728 178.113 104.502C178.622 103.275 178.883 101.961 178.883 100.634C178.883 99.3062 178.622 97.9912 178.113 96.7649C177.605 95.5386 176.86 94.4246 175.921 93.4862" fill="white"/>
</g>
</g>
<defs>
<clipPath id="clip0_1018_4872">
<rect width="200.85" height="200.85" fill="white"/>
</clipPath>
</defs>
</svg>
