<svg width="202" height="201" viewBox="0 0 202 201" fill="none" xmlns="http://www.w3.org/2000/svg">
<g clip-path="url(#clip0_1001_79)">
<path d="M154.522 0H47.8202C21.8216 0 0.745605 21.076 0.745605 47.0746V153.777C0.745605 179.775 21.8216 200.851 47.8202 200.851H154.522C180.521 200.851 201.597 179.775 201.597 153.777V47.0746C201.597 21.076 180.521 0 154.522 0Z" fill="#E14E1D"/>
<path d="M38.4052 29.814L45.1603 105.599H132.021L129.106 138.103L101.139 145.665L73.2247 138.114L71.3584 117.243H46.2031L49.8001 157.477L101.133 171.734L152.53 157.477L159.421 80.5407H68.0811L65.7877 54.8771H161.616H161.693L163.937 29.814H38.4052Z" fill="white"/>
<path d="M101.171 29.814H38.4052L45.1603 105.599H101.171V80.5407H68.0811L65.7877 54.8771H101.171V29.814Z" fill="#EBEBEB"/>
<path d="M101.171 145.654L101.139 145.665L73.2247 138.114L71.3583 117.243H46.203L49.8001 157.477L101.133 171.734L101.171 171.723V145.654Z" fill="#EBEBEB"/>
</g>
<defs>
<clipPath id="clip0_1001_79">
<rect width="200.851" height="200.851" fill="white" transform="translate(0.745605)"/>
</clipPath>
</defs>
</svg>
