<svg width="201" height="201" viewBox="0 0 201 201" fill="none" xmlns="http://www.w3.org/2000/svg">
<g clip-path="url(#clip0_1018_4792)">
<path d="M153.776 0H47.0742C21.0758 0 0 21.0758 0 47.0742V153.776C0 179.774 21.0758 200.85 47.0742 200.85H153.776C179.774 200.85 200.85 179.774 200.85 153.776V47.0742C200.85 21.0758 179.774 0 153.776 0Z" fill="#242938"/>
<path d="M79.739 143.277C79.739 143.277 73.7141 146.944 83.9325 147.993C96.2722 149.566 102.797 149.303 116.419 146.685C116.419 146.685 120.086 149.045 125.065 150.877C94.4081 163.976 55.633 150.091 79.739 143.277ZM75.8092 126.248C75.8092 126.248 69.2582 131.227 79.4762 132.273C92.8358 133.582 103.32 133.845 121.398 130.18C121.398 130.18 123.759 132.802 127.686 134.111C90.7465 145.115 49.3475 135.157 75.8092 126.25V126.248ZM148.123 156.117C148.123 156.117 152.576 159.784 143.144 162.668C125.588 167.907 69.5211 169.482 53.8007 162.668C48.3013 160.307 58.7797 156.9 62.184 156.379C65.591 155.593 67.4233 155.593 67.4233 155.593C61.398 151.401 27.3363 164.239 50.1308 167.934C112.75 178.154 164.367 163.481 148.121 156.143L148.123 156.117ZM82.6207 108.43C82.6207 108.43 54.0609 115.244 72.3996 117.599C80.2599 118.645 95.7175 118.385 110.129 117.336C121.919 116.29 133.736 114.192 133.736 114.192C133.736 114.192 129.543 116.027 126.662 117.859C97.555 125.464 41.7475 122.058 57.7308 114.197C71.3587 107.646 82.6207 108.43 82.6207 108.43ZM133.709 136.989C163.057 121.792 149.429 107.12 139.997 108.955C137.636 109.479 136.591 110.002 136.591 110.002C136.591 110.002 137.376 108.43 139.211 107.91C157.812 101.358 172.487 127.56 133.186 137.778C133.186 137.778 133.449 137.515 133.709 136.992V136.989ZM85.5017 178.383C113.799 180.218 157.029 177.336 158.078 163.971C158.078 163.971 155.986 169.21 134.761 173.141C110.657 177.594 80.7856 177.071 63.233 174.187C63.233 174.187 66.9001 177.331 85.504 178.38L85.5017 178.383Z" fill="white"/>
<path d="M115.869 21.9679C115.869 21.9679 132.113 38.4743 100.412 63.3614C74.9964 83.5347 94.6443 95.0647 100.412 108.162C85.4774 94.8019 74.7389 83.009 82.0708 72.0048C92.839 55.7694 122.442 47.9092 115.869 21.9679ZM107.486 97.1627C115.083 105.809 105.394 113.669 105.394 113.669C105.394 113.669 124.781 103.716 115.875 91.3977C107.751 79.6071 101.464 73.8424 135.525 54.1893C135.525 54.1893 81.8135 67.5489 107.492 97.1572L107.486 97.1627Z" fill="#F58219"/>
</g>
<defs>
<clipPath id="clip0_1018_4792">
<rect width="200.85" height="200.85" fill="white"/>
</clipPath>
</defs>
</svg>
