<svg width="201" height="201" viewBox="0 0 201 201" fill="none" xmlns="http://www.w3.org/2000/svg">
<g clip-path="url(#clip0_1001_69)">
<path d="M153.777 0H47.0746C21.076 0 0 21.076 0 47.0746V153.777C0 179.775 21.076 200.851 47.0746 200.851H153.777C179.775 200.851 200.851 179.775 200.851 153.777V47.0746C200.851 21.076 179.775 0 153.777 0Z" fill="#F0DB4F"/>
<path d="M52.811 167.846L68.1817 158.544C71.1469 163.801 73.8443 168.25 80.3146 168.25C86.5167 168.25 90.427 165.824 90.427 156.387V92.2105H109.302V156.654C109.302 176.203 97.8428 185.102 81.1235 185.102C66.0246 185.102 57.2597 177.282 52.8107 167.844" fill="#323330"/>
<path d="M119.554 165.823L134.923 156.926C138.969 163.532 144.227 168.386 153.529 168.386C161.35 168.386 166.337 164.475 166.337 159.082C166.337 152.611 161.214 150.319 152.585 146.545L147.867 144.521C134.249 138.725 125.216 131.444 125.216 116.074C125.216 101.917 136.002 91.131 152.856 91.131C164.855 91.131 173.484 95.3112 179.685 106.232L164.989 115.669C161.753 109.872 158.249 107.58 152.856 107.58C147.327 107.58 143.822 111.086 143.822 115.669C143.822 121.332 147.327 123.624 155.416 127.13L160.135 129.152C176.179 136.029 185.212 143.039 185.212 158.812C185.212 175.802 171.865 185.104 153.934 185.104C136.407 185.104 125.082 176.745 119.554 165.823Z" fill="#323330"/>
</g>
<defs>
<clipPath id="clip0_1001_69">
<rect width="200.851" height="200.851" fill="white"/>
</clipPath>
</defs>
</svg>
