<svg width="202" height="202" viewBox="0 0 202 202" fill="none" xmlns="http://www.w3.org/2000/svg">
<g clip-path="url(#clip0_1001_15)">
<path d="M154.522 0.511108H47.8202C21.8216 0.511108 0.745605 21.5871 0.745605 47.5857V154.288C0.745605 180.287 21.8216 201.363 47.8202 201.363H154.522C180.521 201.363 201.597 180.287 201.597 154.288V47.5857C201.597 21.5871 180.521 0.511108 154.522 0.511108Z" fill="#023430"/>
<path d="M135.044 84.9245C126.777 48.4564 109.547 38.748 105.152 31.8853C103.34 28.8621 101.734 25.7195 100.347 22.4793C100.114 25.719 99.6876 27.7601 96.9338 30.2168C91.4048 35.1466 67.9222 54.2824 65.946 95.7179C64.1047 134.352 94.3478 158.174 98.3428 160.637C101.415 162.149 105.157 160.669 106.983 159.281C121.561 149.276 141.48 122.602 135.059 84.9245" fill="#10AA50"/>
<path d="M101.599 140.064C100.838 149.627 100.293 155.183 98.3594 160.648C98.3594 160.648 99.628 169.751 100.519 179.394H103.673C104.425 172.604 105.573 165.863 107.112 159.206C103.03 157.197 101.756 148.455 101.599 140.064Z" fill="#B8C4C2"/>
<path d="M107.106 159.211C102.981 157.306 101.788 148.379 101.604 140.064C102.624 126.348 102.922 112.587 102.495 98.8389C102.279 91.6255 102.597 32.0257 100.718 23.3C102.004 26.2554 103.485 29.1217 105.152 31.8799C109.547 38.7481 126.782 48.4564 135.044 84.9245C141.479 122.538 121.669 149.141 107.106 159.211Z" fill="#12924F"/>
</g>
<defs>
<clipPath id="clip0_1001_15">
<rect width="200.851" height="200.851" fill="white" transform="translate(0.745605 0.511108)"/>
</clipPath>
</defs>
</svg>
