<svg width="201" height="201" viewBox="0 0 201 201" fill="none" xmlns="http://www.w3.org/2000/svg">
<g clip-path="url(#clip0_1018_4868)">
<path d="M153.776 0H47.0742C21.0758 0 0 21.0758 0 47.0742V153.776C0 179.774 21.0758 200.85 47.0742 200.85H153.776C179.774 200.85 200.85 179.774 200.85 153.776V47.0742C200.85 21.0758 179.774 0 153.776 0Z" fill="#242938"/>
<path d="M135.564 76.4212L135.506 76.3966C135.474 76.3844 135.441 76.372 135.412 76.3434C135.365 76.293 135.331 76.2325 135.311 76.1665C135.291 76.1005 135.287 76.0308 135.298 75.9628L138.461 56.6223L153.296 71.4613L137.868 78.0254C137.825 78.0426 137.779 78.051 137.733 78.0499H137.672C137.651 78.0377 137.63 78.0213 137.589 77.9803C137.015 77.3411 136.328 76.8126 135.564 76.4212ZM157.081 75.2426L172.944 91.1042C176.238 94.4034 177.887 96.0478 178.489 97.9551C178.578 98.2375 178.652 98.52 178.709 98.8103L140.802 82.7564C140.782 82.7478 140.761 82.7399 140.741 82.7313C140.589 82.6701 140.413 82.6003 140.413 82.4449C140.413 82.2896 140.593 82.2158 140.745 82.1546L140.793 82.1342L157.081 75.2426ZM178.063 103.901C177.245 105.44 175.649 107.036 172.948 109.741L155.064 127.62L131.934 122.804L131.811 122.78C131.606 122.747 131.39 122.71 131.39 122.525C131.302 121.571 131.019 120.646 130.557 119.805C130.096 118.966 129.467 118.23 128.709 117.644C128.615 117.55 128.64 117.402 128.668 117.267C128.668 117.247 128.668 117.227 128.677 117.21L133.026 90.5032L133.043 90.413C133.068 90.2083 133.104 89.9713 133.288 89.9713C134.22 89.8552 135.12 89.5547 135.935 89.0871C136.751 88.6203 137.465 87.9958 138.036 87.2496C138.073 87.2088 138.097 87.1633 138.146 87.139C138.277 87.0778 138.433 87.139 138.568 87.1963L178.059 103.901H178.063ZM150.951 131.733L121.543 161.141L126.577 130.203L126.585 130.162C126.59 130.121 126.597 130.08 126.61 130.043C126.651 129.945 126.757 129.904 126.859 129.864L126.908 129.843C128.01 129.372 128.986 128.647 129.753 127.727C129.851 127.613 129.97 127.502 130.121 127.482C130.16 127.475 130.2 127.475 130.239 127.482L150.947 131.738L150.951 131.733ZM115.318 167.366L112.004 170.681L75.3569 117.717C75.3437 117.698 75.33 117.678 75.316 117.66C75.2587 117.582 75.1974 117.504 75.2096 117.414C75.2137 117.349 75.2546 117.292 75.2997 117.242L75.3405 117.19C75.4511 117.026 75.5452 116.862 75.6475 116.686L75.7294 116.542L75.7416 116.531C75.7989 116.433 75.8521 116.338 75.9503 116.285C76.0363 116.244 76.1549 116.261 76.2491 116.281L116.849 124.654C116.963 124.671 117.07 124.718 117.161 124.789C117.214 124.842 117.226 124.9 117.238 124.965C117.522 126.036 118.049 127.028 118.778 127.862C119.508 128.696 120.421 129.35 121.445 129.773C121.56 129.831 121.51 129.958 121.458 130.093C121.431 130.152 121.411 130.213 121.396 130.277C120.884 133.387 116.498 160.143 115.318 167.366ZM108.395 174.286C105.951 176.705 104.511 177.985 102.882 178.501C101.276 179.009 99.5525 179.009 97.9465 178.501C96.04 177.896 94.3908 176.251 91.0964 172.952L54.2935 136.15L63.9065 121.24C63.9515 121.167 63.9965 121.101 64.0702 121.048C64.1725 120.974 64.3198 121.007 64.4426 121.048C66.6491 121.714 69.018 121.594 71.1459 120.708C71.2564 120.668 71.3669 120.639 71.4528 120.717C71.4958 120.756 71.5342 120.8 71.5674 120.848L108.395 174.29V174.286ZM50.7454 132.601L42.3029 124.159L58.9752 117.046C59.0178 117.027 59.0638 117.018 59.1102 117.018C59.2494 117.018 59.3312 117.157 59.4049 117.284C59.5725 117.541 59.75 117.792 59.9369 118.036L59.9901 118.102C60.0392 118.171 60.0065 118.241 59.9574 118.307L50.7495 132.601H50.7454ZM38.5666 120.422L27.8855 109.741C26.0685 107.924 24.7507 106.607 23.8341 105.473L56.3111 112.209C56.3519 112.216 56.3928 112.223 56.4338 112.23C56.6344 112.262 56.8554 112.299 56.8554 112.487C56.8554 112.692 56.6139 112.786 56.4093 112.864L56.3152 112.904L38.5666 120.422ZM21.968 99.9809C22.005 99.2928 22.1287 98.6126 22.3362 97.9551C22.9419 96.0478 24.5871 94.4034 27.8855 91.1042L41.554 77.4361C47.8474 86.5694 54.1579 95.6916 60.4853 104.802C60.5958 104.949 60.7185 105.113 60.5917 105.235C59.9942 105.894 59.3967 106.614 58.9752 107.397C58.9295 107.497 58.8591 107.584 58.7706 107.65C58.7174 107.683 58.6601 107.67 58.5987 107.658H58.5905L21.968 99.9769V99.9809ZM45.2126 73.7775L63.5914 55.3987C65.3184 56.1558 71.6043 58.8117 77.2271 61.1853C81.4831 62.9859 85.3628 64.6229 86.582 65.1549C86.7052 65.204 86.8158 65.2531 86.8684 65.3759C86.9013 65.4496 86.8849 65.5436 86.8684 65.6214C86.5781 66.9481 86.6213 68.3262 86.9947 69.632C87.3682 70.9378 88.0601 72.1303 89.0087 73.1023C89.1319 73.2251 89.0087 73.401 88.9028 73.5525L88.8455 73.6384L70.1842 102.542C70.1351 102.625 70.09 102.694 70.0082 102.747C69.91 102.808 69.7709 102.78 69.6563 102.751C68.9304 102.561 68.1843 102.459 67.4341 102.448C66.763 102.448 66.0345 102.572 65.2979 102.706H65.2938C65.212 102.719 65.1383 102.735 65.0728 102.686C65.0005 102.627 64.9383 102.557 64.8887 102.477L45.2126 73.7775ZM67.3032 51.687L91.0964 27.8939C94.3908 24.5996 96.04 22.9503 97.9465 22.3487C99.5525 21.841 101.276 21.841 102.882 22.3487C104.79 22.9503 106.439 24.5996 109.733 27.8939L114.889 33.0503L97.9669 59.2578C97.9253 59.3341 97.8681 59.4009 97.7998 59.4542C97.697 59.5238 97.5542 59.4952 97.4311 59.4542C96.0973 59.0494 94.6843 58.9756 93.3152 59.2395C91.9461 59.5033 90.6618 60.0967 89.5736 60.9684C89.463 61.083 89.2998 61.0175 89.1601 60.9561C86.9508 59.9945 69.7626 52.7305 67.3032 51.687ZM118.483 36.6434L134.107 52.268L130.342 75.5863V75.6477C130.338 75.7008 130.327 75.7533 130.309 75.8032C130.268 75.8851 130.186 75.9015 130.104 75.926C129.3 76.1699 128.542 76.5475 127.862 77.0432C127.832 77.064 127.806 77.0873 127.78 77.1128C127.735 77.1619 127.69 77.2069 127.617 77.2151C127.556 77.2169 127.497 77.2072 127.44 77.1864L103.631 67.0701L103.586 67.0496C103.435 66.9883 103.255 66.9146 103.255 66.7591C103.114 65.4323 102.681 64.1532 101.986 63.0146C101.872 62.8264 101.745 62.6299 101.843 62.4375L118.483 36.6434ZM102.391 71.8623L124.711 81.3159C124.834 81.3732 124.969 81.4258 125.022 81.5529C125.043 81.629 125.043 81.7098 125.022 81.7859C124.956 82.1138 124.899 82.4857 124.899 82.8623V83.4884C124.899 83.6445 124.74 83.7097 124.592 83.7709L124.547 83.7873C121.011 85.2976 74.9068 104.957 74.8372 104.957C74.7676 104.957 74.694 104.957 74.6244 104.888C74.5016 104.765 74.6244 104.593 74.7349 104.437C74.7544 104.411 74.7735 104.383 74.7922 104.356L93.134 75.9547L93.1669 75.9055C93.2736 75.7336 93.396 75.5413 93.5922 75.5413L93.7765 75.57C94.1939 75.6272 94.5627 75.6804 94.9346 75.6804C97.7174 75.6804 100.296 74.3259 101.851 72.0096C101.888 71.9478 101.935 71.8925 101.99 71.8459C102.101 71.764 102.264 71.805 102.391 71.8623ZM76.8302 109.451L127.085 88.0193C127.085 88.0193 127.158 88.0193 127.227 88.0883C127.502 88.3629 127.735 88.5465 127.96 88.7184L128.071 88.7882C128.173 88.8455 128.276 88.9114 128.283 89.0173C128.283 89.0581 128.283 89.0832 128.276 89.1201L123.97 115.565L123.953 115.671C123.925 115.875 123.896 116.109 123.704 116.109C122.556 116.186 121.444 116.542 120.466 117.146C119.487 117.751 118.669 118.584 118.086 119.576L118.064 119.608C118.007 119.702 117.955 119.792 117.86 119.841C117.774 119.882 117.664 119.866 117.574 119.845L77.4972 111.578C77.4563 111.571 76.8752 109.455 76.8302 109.451Z" fill="url(#paint0_radial_1018_4868)"/>
</g>
<defs>
<radialGradient id="paint0_radial_1018_4868" cx="0" cy="0" r="1" gradientUnits="userSpaceOnUse" gradientTransform="translate(16.7055 98.2109) rotate(90) scale(156.741 180.963)">
<stop stop-color="#20C6B7"/>
<stop offset="1" stop-color="#4D9ABF"/>
</radialGradient>
<clipPath id="clip0_1018_4868">
<rect width="200.85" height="200.85" fill="white"/>
</clipPath>
</defs>
</svg>
