<svg width="202" height="201" viewBox="0 0 202 201" fill="none" xmlns="http://www.w3.org/2000/svg">
<g clip-path="url(#clip0_1001_99)">
<path d="M154.641 0H47.9384C21.9399 0 0.863892 21.076 0.863892 47.0746V153.777C0.863892 179.775 21.9399 200.851 47.9384 200.851H154.641C180.639 200.851 201.715 179.775 201.715 153.777V47.0746C201.715 21.076 180.639 0 154.641 0Z" fill="#242938"/>
<path d="M96.1515 22.0105C95.8141 22.0412 94.74 22.1486 93.7734 22.2253C71.4865 24.2347 50.6106 36.2603 37.3886 54.7435C30.0259 65.0204 25.317 76.6779 23.5377 89.0254C22.9088 93.3358 22.8321 94.6092 22.8321 100.453C22.8321 106.297 22.9088 107.57 23.5377 111.88C27.8018 141.346 48.7699 166.103 77.2079 175.275C82.3006 176.917 87.6687 178.036 93.7734 178.711C96.1515 178.972 106.428 178.972 108.806 178.711C119.344 177.545 128.27 174.938 137.075 170.443C138.424 169.754 138.686 169.569 138.501 169.416C138.379 169.324 132.626 161.608 125.725 152.283L113.178 135.333L97.4547 112.064C88.8039 99.2719 81.6871 88.8104 81.6251 88.8104C81.5639 88.7955 81.5027 99.1338 81.4721 111.758C81.4258 133.861 81.4109 134.75 81.1347 135.271C80.7361 136.023 80.4294 136.33 79.7845 136.668C79.2939 136.913 78.8645 136.959 76.5483 136.959H73.8947L73.1892 136.514C72.729 136.223 72.3916 135.839 72.1614 135.395L71.8393 134.704L71.87 103.95L71.916 73.1806L72.3916 72.5824C72.637 72.2603 73.1585 71.8461 73.5266 71.6467C74.1554 71.3399 74.4009 71.3092 77.0545 71.3092C80.1838 71.3092 80.7048 71.4319 81.5184 72.3216C81.7483 72.5671 90.2609 85.3904 100.446 100.836C110.631 116.282 124.559 137.373 131.399 147.727L143.824 166.548L144.453 166.133C150.02 162.513 155.911 157.36 160.574 151.991C170.498 140.594 176.895 126.698 179.042 111.88C179.67 107.57 179.747 106.297 179.747 100.453C179.747 94.6092 179.67 93.3358 179.042 89.0254C174.778 59.5598 153.809 34.8031 125.371 25.6305C120.356 24.0046 115.018 22.8849 109.036 22.21C107.563 22.0566 97.4241 21.8878 96.1515 22.0105ZM128.27 69.4686C129.006 69.8367 129.605 70.5423 129.82 71.2786C129.942 71.6774 129.973 80.2059 129.942 99.4249L129.896 127.004L125.034 119.549L120.156 112.095V92.0475C120.156 79.0863 120.218 71.8001 120.309 71.4473C120.555 70.5884 121.092 69.9135 121.828 69.5146C122.457 69.1925 122.687 69.1618 125.095 69.1618C127.366 69.1618 127.764 69.1925 128.27 69.4686Z" fill="white"/>
</g>
<defs>
<clipPath id="clip0_1001_99">
<rect width="200.851" height="200.851" fill="white" transform="translate(0.863892)"/>
</clipPath>
</defs>
</svg>
