<svg width="202" height="201" viewBox="0 0 202 201" fill="none" xmlns="http://www.w3.org/2000/svg">
<g clip-path="url(#clip0_1001_103)">
<path d="M154.014 0H47.3116C21.3131 0 0.237061 21.076 0.237061 47.0746V153.777C0.237061 179.775 21.3131 200.851 47.3116 200.851H154.014C180.012 200.851 201.089 179.775 201.089 153.777V47.0746C201.089 21.076 180.012 0 154.014 0Z" fill="#242938"/>
<path d="M94.2902 24.4131C98.1495 22.204 103.175 22.1942 107.031 24.4131C126.427 35.3729 145.83 46.3159 165.223 57.2824C168.871 59.3371 171.31 63.3966 171.274 67.5996V133.539C171.301 137.917 168.62 142.073 164.772 144.081C145.439 154.981 126.116 165.894 106.786 176.794C102.848 179.046 97.7211 178.872 93.9049 176.435C88.1093 173.076 82.3034 169.732 76.5071 166.376C75.3224 165.669 73.9872 165.108 73.151 163.959C73.8901 162.963 75.2123 162.839 76.2864 162.403C78.7054 161.634 80.9281 160.399 83.15 159.201C83.7125 158.816 84.3982 158.964 84.9372 159.307C89.8934 162.149 94.8064 165.074 99.7791 167.888C100.84 168.501 101.914 167.687 102.821 167.182C121.792 156.459 140.786 145.778 159.755 135.052C160.458 134.714 160.847 133.968 160.789 133.198C160.803 111.446 160.792 89.6903 160.796 67.9378C160.876 67.0643 160.371 66.2613 159.581 65.9035C140.316 55.0538 121.059 44.1876 101.797 33.3351C101.114 32.8653 100.212 32.8641 99.528 33.3316C80.2651 44.1876 61.013 55.064 41.7506 65.9129C40.9635 66.2711 40.4353 67.0611 40.529 67.9378C40.5323 89.6903 40.529 111.446 40.529 133.201C40.4606 133.971 40.8786 134.701 41.5766 135.032C46.7168 137.947 51.8638 140.841 57.0073 143.747C59.905 145.306 63.4629 146.233 66.6555 145.038C69.4727 144.028 71.4475 141.152 71.3937 138.161C71.4204 116.536 71.3804 94.9077 71.4137 73.2854C71.3436 72.3253 72.254 71.5321 73.1874 71.6227C75.6574 71.6058 78.1303 71.5894 80.6001 71.6293C81.631 71.6058 82.3403 72.6396 82.2132 73.6068C82.203 95.369 82.2399 117.132 82.1967 138.893C82.203 144.694 79.8202 151.005 74.4555 153.843C67.8466 157.266 59.6777 156.54 53.1485 153.257C47.4961 150.436 42.102 147.106 36.5499 144.084C32.6916 142.087 30.024 137.914 30.0511 133.54V67.5996C30.0107 63.3096 32.5476 59.1764 36.3088 57.152C55.6383 46.2434 74.9646 35.3263 94.2902 24.4131Z" fill="#81CD39"/>
<path d="M111.154 70.0903C119.584 69.5475 128.609 69.7689 136.195 73.9217C142.069 77.1046 145.325 83.7842 145.429 90.3095C145.265 91.189 144.345 91.6747 143.504 91.6143C141.059 91.6111 138.612 91.648 136.166 91.5978C135.128 91.6378 134.526 90.6814 134.395 89.7642C133.692 86.6416 131.989 83.5496 129.051 82.0432C124.539 79.7852 119.309 79.899 114.39 79.9461C110.799 80.1359 106.937 80.4474 103.895 82.5587C101.559 84.1584 100.85 87.3878 101.683 89.9886C102.469 91.8559 104.625 92.4585 106.389 93.014C116.549 95.6713 127.315 95.4061 137.28 98.903C141.406 100.329 145.442 103.1 146.854 107.42C148.702 113.21 147.892 120.13 143.773 124.778C140.432 128.603 135.567 130.685 130.714 131.816C124.259 133.256 117.559 133.293 111.003 132.653C104.839 131.95 98.4233 130.331 93.6648 126.131C89.5952 122.597 87.6079 117.091 87.8048 111.778C87.8519 110.88 88.7455 110.254 89.6054 110.328C92.0682 110.308 94.5318 110.301 96.9946 110.332C97.9792 110.261 98.7081 111.112 98.7591 112.039C99.2126 115.013 100.331 118.136 102.925 119.899C107.931 123.129 114.213 122.908 119.945 122.998C124.694 122.788 130.025 122.724 133.9 119.585C135.945 117.795 136.551 114.799 135.998 112.223C135.4 110.047 133.124 109.033 131.169 108.37C121.14 105.198 110.253 106.349 100.321 102.762C96.2885 101.337 92.3891 98.6425 90.8404 94.4999C88.6788 88.6368 89.669 81.3842 94.2203 76.8933C98.6579 72.4259 105.063 70.7059 111.154 70.0903Z" fill="#81CD39"/>
</g>
<defs>
<clipPath id="clip0_1001_103">
<rect width="200.851" height="200.851" fill="white" transform="translate(0.237061)"/>
</clipPath>
</defs>
</svg>
