<svg width="202" height="202" viewBox="0 0 202 202" fill="none" xmlns="http://www.w3.org/2000/svg">
<g clip-path="url(#clip0_1001_48)">
<mask id="mask0_1001_48" style="mask-type:luminance" maskUnits="userSpaceOnUse" x="0" y="0" width="202" height="202">
<path d="M201.715 0.511108H0.863892V201.363H201.715V0.511108Z" fill="white"/>
</mask>
<g mask="url(#mask0_1001_48)">
<path d="M154.641 0.511108H47.9384C21.9399 0.511108 0.863892 21.5871 0.863892 47.5857V154.288C0.863892 180.286 21.9399 201.363 47.9384 201.363H154.641C180.639 201.363 201.715 180.286 201.715 154.288V47.5857C201.715 21.5871 180.639 0.511108 154.641 0.511108Z" fill="#242938"/>
<mask id="mask1_1001_48" style="mask-type:luminance" maskUnits="userSpaceOnUse" x="18" y="69" width="166" height="64">
<path d="M183.67 69.5536H18.9091V132.32H183.67V69.5536Z" fill="white"/>
</mask>
<g mask="url(#mask1_1001_48)">
<path d="M18.9091 69.5536H183.67V123.353H101.29V132.32H64.676V123.353H18.9091V69.5536ZM28.0625 114.387H46.3693V87.4866H55.5227V114.387H64.676V78.5202H28.0625V114.387ZM73.8294 78.5202V123.353H92.1359V114.387H110.443V78.5202H73.8294ZM92.1359 87.4866H101.29V105.42H92.1359V87.4866ZM119.596 78.5202V114.387H137.903V87.4866H147.056V114.387H156.21V87.4866H165.364V114.387H174.516V78.5202H119.596Z" fill="#CB3837"/>
<path d="M28.0626 114.387H46.3694V87.4868H55.5228V114.387H64.6762V78.5204H28.0626V114.387Z" fill="white"/>
<path d="M73.8297 78.5204V123.353H92.1362V114.387H110.443V78.5204H73.8297ZM101.29 105.42H92.1362V87.4868H101.29V105.42Z" fill="white"/>
<path d="M119.596 78.5204V114.387H137.904V87.4868H147.056V114.387H156.21V87.4868H165.364V114.387H174.517V78.5204H119.596Z" fill="white"/>
</g>
</g>
</g>
<defs>
<clipPath id="clip0_1001_48">
<rect width="200.851" height="200.851" fill="white" transform="translate(0.863892 0.511108)"/>
</clipPath>
</defs>
</svg>
