<svg width="201" height="201" viewBox="0 0 201 201" fill="none" xmlns="http://www.w3.org/2000/svg">
<g clip-path="url(#clip0_1018_4808)">
<path d="M153.776 0H47.0742C21.0758 0 0 21.0758 0 47.0742V153.776C0 179.774 21.0758 200.85 47.0742 200.85H153.776C179.774 200.85 200.85 179.774 200.85 153.776V47.0742C200.85 21.0758 179.774 0 153.776 0Z" fill="#FF6C37"/>
<path d="M132.64 69.5225L92.988 109.175L81.8055 97.9935C120.801 58.9985 124.654 62.3812 132.64 69.5225Z" fill="#EEEEEE"/>
<path d="M92.988 110.115C92.7055 110.115 92.518 110.021 92.3297 109.833L81.0539 98.6513C80.6781 98.2755 80.6781 97.7121 81.0539 97.3363C120.707 57.6827 124.841 61.4413 133.204 68.9586C133.393 69.1466 133.486 69.3345 133.486 69.6164C133.486 69.8984 133.393 70.0863 133.204 70.2737L93.5513 109.833C93.4579 110.021 93.1755 110.115 92.988 110.115ZM83.1212 97.9938L92.988 107.86L131.231 69.6164C124.278 63.4143 119.579 61.5353 83.1212 97.9938Z" fill="#FF6C37"/>
<path d="M104.357 120.545L93.5514 109.739L133.204 70.0868C143.823 80.7981 127.942 98.1819 104.357 120.545Z" fill="#EEEEEE"/>
<path d="M104.357 121.485C104.075 121.485 103.888 121.391 103.7 121.203L92.8939 110.397C92.7056 110.21 92.7056 110.021 92.7056 109.74C92.7056 109.457 92.7997 109.27 92.988 109.081L132.64 69.4289C133.016 69.053 133.58 69.053 133.956 69.4289C136.399 71.6839 137.715 74.8786 137.621 78.1673C137.433 88.597 125.593 101.846 105.109 121.203C104.827 121.391 104.545 121.485 104.357 121.485ZM94.8671 109.74C100.88 115.847 103.418 118.291 104.357 119.23C120.144 104.196 135.459 88.7853 135.553 78.1673C135.647 75.7244 134.708 73.2815 133.11 71.4019L94.8671 109.74Z" fill="#FF6C37"/>
<path d="M81.9938 98.275L89.9808 106.262C90.1683 106.45 90.1683 106.638 89.9808 106.826C89.8866 106.92 89.8866 106.92 89.7932 106.92L73.2547 110.491C72.4095 110.585 71.6577 110.021 71.4698 109.175C71.3758 108.705 71.5638 108.236 71.8457 107.953L81.4297 98.3691C81.618 98.1809 81.8997 98.0867 81.9938 98.275Z" fill="#EEEEEE"/>
<path d="M72.9728 111.431C71.5637 111.431 70.5299 110.303 70.5299 108.893C70.5299 108.236 70.8119 107.578 71.2818 107.108L80.8656 97.5237C81.4297 97.0538 82.1821 97.0538 82.7454 97.5237L90.7324 105.511C91.2957 105.981 91.2957 106.826 90.7324 107.39C90.5441 107.578 90.3565 107.672 90.0741 107.766L73.5367 111.337C73.3487 111.337 73.1607 111.431 72.9728 111.431ZM81.7122 99.3086L72.5035 108.517C72.3156 108.705 72.2216 108.987 72.4095 109.269C72.5035 109.551 72.7848 109.645 73.0668 109.551L88.5709 106.168L81.7122 99.3086Z" fill="#FF6C37"/>
<path d="M153.595 47.5352C147.581 41.7096 137.902 41.8976 132.076 48.0052C126.251 54.1127 126.439 63.6969 132.546 69.5231C137.527 74.315 145.044 75.1608 150.964 71.5901L140.251 60.8781L153.595 47.5352Z" fill="#EEEEEE"/>
<path d="M143.07 74.6907C134.144 74.6907 126.909 67.4554 126.909 58.529C126.909 49.602 134.144 42.3667 143.07 42.3667C147.205 42.3667 151.246 43.9644 154.252 46.8772C154.44 47.0652 154.534 47.2531 154.534 47.5351C154.534 47.817 154.44 48.0049 154.252 48.1929L141.567 60.8779L151.527 70.838C151.904 71.214 151.904 71.7779 151.527 72.1538C151.434 72.2478 151.434 72.2478 151.34 72.3418C148.897 73.8448 145.983 74.6907 143.07 74.6907ZM143.07 44.3403C135.178 44.3403 128.788 50.7298 128.882 58.623C128.882 66.5162 135.271 72.9056 143.164 72.8117C145.326 72.8117 147.487 72.3418 149.46 71.3079L139.594 61.5358C139.406 61.3478 139.312 61.1598 139.312 60.8779C139.312 60.596 139.406 60.408 139.594 60.2201L152.185 47.629C149.648 45.4681 146.453 44.3403 143.07 44.3403Z" fill="#FF6C37"/>
<path d="M153.876 47.8175L153.689 47.6295L140.251 60.8784L150.87 71.4965C151.904 70.8386 152.936 70.0874 153.783 69.2415C159.796 63.3213 159.796 53.7371 153.876 47.8175Z" fill="#EEEEEE"/>
<path d="M150.964 72.5296C150.681 72.5296 150.494 72.4356 150.306 72.2477L139.594 61.5356C139.406 61.3476 139.312 61.1597 139.312 60.8777C139.312 60.5958 139.406 60.4079 139.594 60.2199L152.936 46.877C153.313 46.5011 153.876 46.5011 154.252 46.877L154.534 47.065C160.83 53.3605 160.83 63.5086 154.629 69.8987C153.689 70.8379 152.655 71.6837 151.527 72.3417C151.246 72.4356 151.058 72.5296 150.964 72.5296ZM141.567 60.8777L151.058 70.368C151.81 69.8987 152.561 69.2409 153.125 68.677C158.481 63.3207 158.762 54.5823 153.595 48.9446L141.567 60.8777Z" fill="#FF6C37"/>
<path d="M134.238 71.2135C131.983 68.9586 128.318 68.9586 126.063 71.2135L90.6383 106.638L96.5587 112.558L134.05 79.6709C136.493 77.603 136.681 73.9384 134.614 71.4954C134.426 71.4015 134.332 71.3075 134.238 71.2135Z" fill="#EEEEEE"/>
<path d="M96.4645 113.497C96.1828 113.497 95.9945 113.403 95.8062 113.216L89.8867 107.296C89.5108 106.92 89.5108 106.356 89.8867 105.98L125.311 70.5555C127.942 67.9247 132.17 67.9247 134.802 70.5555C137.433 73.187 137.433 77.4149 134.802 80.0465C134.708 80.1406 134.614 80.234 134.52 80.3281L97.0278 113.216C96.9344 113.403 96.7462 113.497 96.4645 113.497ZM91.954 106.638L96.5586 111.243L133.393 78.9182C135.459 77.2269 135.648 74.1262 133.956 72.0592C132.264 69.9923 129.164 69.8043 127.096 71.4953C127.003 71.5893 126.909 71.6833 126.721 71.7772L91.954 106.638Z" fill="#FF6C37"/>
<path d="M63.4826 146.95C63.1066 147.137 62.9186 147.513 63.0126 147.889L64.6103 154.655C64.9863 155.594 64.4224 156.722 63.3886 157.004C62.6367 157.286 61.7915 157.004 61.3217 156.441L50.9856 146.198L84.7186 112.465L96.3703 112.652L104.263 120.546C102.384 122.143 91.014 133.137 63.4826 146.95Z" fill="#EEEEEE"/>
<path d="M62.7308 157.943C61.9796 157.943 61.2277 157.661 60.7578 157.098L50.5157 146.855C50.3278 146.668 50.2338 146.479 50.2338 146.198C50.2338 145.916 50.3278 145.728 50.5157 145.539L84.2487 111.807C84.437 111.619 84.7187 111.524 84.907 111.524L96.5586 111.713C96.8403 111.713 97.0278 111.807 97.2153 111.994L105.109 119.887C105.297 120.075 105.391 120.357 105.391 120.639C105.391 120.921 105.297 121.109 105.015 121.297L104.357 121.861C94.3971 130.599 80.8657 139.338 64.0465 147.701L65.6442 154.372C65.9255 155.594 65.3622 156.909 64.2345 157.567C63.6706 157.849 63.2007 157.943 62.7308 157.943ZM52.3947 146.198L62.0735 155.782C62.3548 156.252 62.9187 156.439 63.3887 156.158C63.8585 155.876 64.0465 155.312 63.7645 154.842L62.1675 148.077C61.9796 147.231 62.3548 146.479 63.1067 146.104C79.7382 137.741 93.1756 129.096 103.042 120.545L96.0887 113.592L85.2828 113.403L52.3947 146.198Z" fill="#FF6C37"/>
<path d="M42.9984 154.279L51.0795 146.198L63.1066 158.225L43.9381 156.91C43.0924 156.816 42.5284 156.064 42.6224 155.218C42.6224 154.842 42.7164 154.466 42.9984 154.279Z" fill="#EEEEEE"/>
<path d="M63.1067 159.071L43.8442 157.755C42.4345 157.661 41.4947 156.44 41.5887 155.03C41.6827 154.466 41.8707 153.903 42.3405 153.527L50.4217 145.446C50.7977 145.07 51.3615 145.07 51.7369 145.446L63.7646 157.473C64.0465 157.755 64.1405 158.131 63.9525 158.507C63.7646 158.883 63.4827 159.071 63.1067 159.071ZM51.0795 147.513L43.6563 154.936C43.3744 155.124 43.3744 155.594 43.6563 155.782C43.7502 155.876 43.8442 155.97 44.0322 155.97L60.6638 157.097L51.0795 147.513Z" fill="#FF6C37"/>
<path d="M81.4298 116.787C80.8657 116.787 80.4899 116.317 80.4899 115.847C80.4899 115.565 80.584 115.378 80.7723 115.19L89.8867 106.075C90.2625 105.699 90.8266 105.699 91.2024 106.075L97.122 111.995C97.4037 112.276 97.4978 112.558 97.4037 112.935C97.3095 113.216 97.0279 113.498 96.6528 113.592L81.6181 116.787C81.524 116.787 81.4298 116.787 81.4298 116.787ZM90.5442 108.048L84.3429 114.25L94.4906 112.088L90.5442 108.048Z" fill="#FF6C37"/>
<path d="M96.3704 112.652L86.0344 114.907C85.2828 115.096 84.5304 114.626 84.3429 113.874C84.2487 113.404 84.3429 112.934 84.7187 112.558L90.45 106.826L96.3704 112.652Z" fill="#EEEEEE"/>
<path d="M85.8461 115.847C84.5304 115.847 83.4971 114.814 83.4971 113.498C83.4971 112.841 83.7788 112.276 84.1546 111.807L89.8866 106.075C90.2624 105.699 90.8266 105.699 91.2024 106.075L97.1219 111.995C97.4036 112.276 97.4978 112.558 97.4036 112.935C97.3095 113.216 97.0278 113.498 96.6528 113.592L86.3161 115.847C86.1285 115.847 85.9402 115.847 85.8461 115.847ZM90.5441 108.048L85.4703 113.122C85.2828 113.31 85.2828 113.498 85.3761 113.686C85.4703 113.874 85.6586 113.968 85.9403 113.968L94.5846 112.088L90.5441 108.048Z" fill="#FF6C37"/>
<path d="M153.97 56.8371C153.783 56.2738 153.125 55.9919 152.56 56.1798C151.997 56.3671 151.716 57.025 151.904 57.5889C151.904 57.6829 151.997 57.7768 151.997 57.8708C152.56 58.9986 152.374 60.4077 151.621 61.4415C151.246 61.9114 151.34 62.5693 151.716 62.9452C152.185 63.3205 152.843 63.2272 153.219 62.7573C154.629 60.9716 154.91 58.7167 153.97 56.8371Z" fill="#FF6C37"/>
</g>
<defs>
<clipPath id="clip0_1018_4808">
<rect width="200.85" height="200.85" fill="white"/>
</clipPath>
</defs>
</svg>
