<svg width="201" height="201" viewBox="0 0 201 201" fill="none" xmlns="http://www.w3.org/2000/svg">
<g clip-path="url(#clip0_1018_4797)">
<path d="M153.776 0H47.0742C21.0758 0 0 21.0758 0 47.0742V153.776C0 179.774 21.0758 200.85 47.0742 200.85H153.776C179.774 200.85 200.85 179.774 200.85 153.776V47.0742C200.85 21.0758 179.774 0 153.776 0Z" fill="#242938"/>
<path d="M159.644 116.656C143.702 119.944 142.544 114.544 142.544 114.544C159.385 89.5534 166.43 57.8335 160.35 50.0717C143.78 28.8883 115.088 38.9119 114.608 39.1711L114.453 39.1987C110.949 38.4956 107.387 38.1243 103.812 38.0899C96.5963 37.9796 91.1239 39.982 86.9649 43.132C86.9649 43.132 35.7825 22.0478 38.1657 69.6498C38.6732 79.7784 52.6741 146.33 69.3891 126.194C75.5456 118.791 81.4478 112.573 81.4478 112.573C84.3719 114.521 87.886 115.514 91.5656 115.155L91.852 114.913C91.7681 115.866 91.8073 116.827 91.9681 117.77C87.6655 122.581 88.9342 123.425 80.3282 125.196C71.6233 126.988 76.7426 130.182 80.0748 131.021C84.124 132.036 93.491 133.47 99.824 124.611L99.5698 125.62C101.258 126.972 102.438 134.408 102.24 141.149C102.041 147.891 101.909 152.514 103.233 156.132C104.557 159.751 105.881 167.883 117.19 165.51C126.64 163.486 131.532 158.228 132.222 149.48C132.708 143.256 133.8 144.172 133.878 138.612L134.76 135.975C135.769 127.534 134.925 124.815 140.745 126.084L142.163 126.211C146.449 126.404 152.06 125.521 155.347 123.993C162.436 120.706 166.64 115.21 159.65 116.656H159.644Z" fill="#336791"/>
<path d="M114.602 38.1272C112.837 38.6789 143.09 27.0666 160.29 49.0389C166.359 56.8006 159.325 88.5208 142.483 113.51M100.502 120.654C100.061 136.355 100.612 152.164 102.146 155.96C103.679 159.755 106.973 167.269 118.287 164.852C127.737 162.828 131.179 158.905 132.669 150.25L136.161 122.574L100.502 120.654ZM86.9429 41.9502C86.9429 41.9502 35.7273 21.0095 38.1104 68.6114C38.618 78.7396 52.6189 145.291 69.3339 125.156C75.4351 117.802 80.9519 112.049 80.9519 112.049L86.9429 41.9502Z" stroke="white" stroke-width="3.24538" stroke-linecap="round" stroke-linejoin="round"/>
<path d="M142.488 113.499C142.488 113.499 143.592 118.905 159.59 115.606C166.579 114.161 162.37 119.656 155.287 122.944C149.472 125.646 136.431 126.336 136.216 122.613C135.665 112.986 143.079 115.91 142.544 113.499C142.058 111.326 138.737 109.196 136.553 103.879C134.639 99.2441 110.294 63.6629 143.305 68.9422C144.519 68.694 134.699 37.4981 103.807 37.0458C72.9143 36.5934 73.8907 75.027 73.8907 75.027" stroke="white" stroke-width="3.24538" stroke-linecap="round" stroke-linejoin="bevel"/>
<path d="M91.8575 116.798C87.5549 121.609 88.8235 122.453 80.2184 124.223C71.5129 126.016 76.6322 129.21 79.9642 130.049C84.0133 131.064 93.3803 132.498 99.7134 123.633C101.644 120.93 99.7024 116.627 97.0545 115.535C95.7748 115.006 94.0645 114.343 91.8692 116.804L91.8575 116.798Z" stroke="white" stroke-width="3.24538" stroke-linejoin="round"/>
<path d="M91.5767 116.715C91.135 113.885 92.5033 110.526 93.9649 106.587C96.1609 100.685 101.225 94.7817 97.1762 76.0421C94.1587 62.0854 73.8962 73.135 73.8962 75.0271C73.8962 76.9193 74.8119 84.6262 73.5652 93.5899C71.9268 105.296 81.0125 115.193 91.4716 114.183" stroke="white" stroke-width="3.24538" stroke-linecap="round" stroke-linejoin="round"/>
<path d="M86.7555 74.7454C86.6613 75.3909 87.941 77.1176 89.6019 77.3493C91.2621 77.581 92.6798 76.235 92.7739 75.584C92.8673 74.933 91.5877 74.2269 89.9275 73.9952C88.2666 73.7636 86.8379 74.1055 86.7555 74.7454Z" fill="white" stroke="white" stroke-width="1.08308"/>
<path d="M137.308 73.4272C137.396 74.0727 136.122 75.7993 134.462 76.0311C132.801 76.2628 131.372 74.9167 131.29 74.2658C131.207 73.6148 132.476 72.9087 134.136 72.677C135.797 72.4453 137.225 72.7873 137.308 73.4272Z" fill="white" stroke="white" stroke-width="0.539607"/>
<path d="M143.244 68.9534C143.52 74.0286 142.152 77.4764 141.975 82.8774C141.722 90.7215 145.716 99.7025 139.697 108.694" stroke="white" stroke-width="3.24538" stroke-linecap="round" stroke-linejoin="round"/>
</g>
<defs>
<clipPath id="clip0_1018_4797">
<rect width="200.85" height="200.85" fill="white"/>
</clipPath>
</defs>
</svg>
