<svg width="202" height="202" viewBox="0 0 202 202" fill="none" xmlns="http://www.w3.org/2000/svg">
<g clip-path="url(#clip0_1001_63)">
<path d="M154.014 0.511108H47.3116C21.3131 0.511108 0.237061 21.5871 0.237061 47.5857V154.288C0.237061 180.287 21.3131 201.363 47.3116 201.363H154.014C180.012 201.363 201.089 180.287 201.089 154.288V47.5857C201.089 21.5871 180.012 0.511108 154.014 0.511108Z" fill="#242938"/>
<path d="M100.097 23.264C60.2619 23.264 62.7495 40.5388 62.7495 40.5388L62.7939 58.4353H100.808V63.8087H47.6952C47.6952 63.8087 22.2048 60.9178 22.2048 101.111C22.2048 141.305 44.4533 139.88 44.4533 139.88H57.7314V121.228C57.7314 121.228 57.0157 98.9803 79.6248 98.9803H117.327C117.327 98.9803 138.51 99.3223 138.51 78.5078V44.0914C138.51 44.0914 141.726 23.264 100.097 23.264ZM79.136 35.2986C82.9185 35.2986 85.9752 38.3554 85.9752 42.1374C85.9752 45.9195 82.9185 48.9763 79.136 48.9763C75.3541 48.9763 72.2973 45.9195 72.2973 42.1374C72.2973 38.3554 75.3541 35.2986 79.136 35.2986Z" fill="url(#paint0_linear_1001_63)"/>
<path d="M101.228 179.362C141.063 179.362 138.576 162.088 138.576 162.088L138.531 144.191H100.517V138.817H153.63C153.63 138.817 179.12 141.708 179.12 101.514C179.12 61.3207 156.872 62.7461 156.872 62.7461H143.594V81.3978C143.594 81.3978 144.309 103.646 121.7 103.646H83.9982C83.9982 103.646 62.8152 103.303 62.8152 124.118V158.534C62.8152 158.534 59.599 179.362 101.228 179.362ZM122.189 167.327C118.407 167.327 115.35 164.27 115.35 160.489C115.35 156.706 118.407 153.649 122.189 153.649C125.971 153.649 129.028 156.706 129.028 160.489C129.028 164.27 125.971 167.327 122.189 167.327Z" fill="url(#paint1_linear_1001_63)"/>
</g>
<defs>
<linearGradient id="paint0_linear_1001_63" x1="37.2844" y1="37.3047" x2="115.046" y2="114.29" gradientUnits="userSpaceOnUse">
<stop stop-color="#387EB8"/>
<stop offset="1" stop-color="#366994"/>
</linearGradient>
<linearGradient id="paint1_linear_1001_63" x1="85.015" y1="86.74" x2="168.522" y2="165.682" gradientUnits="userSpaceOnUse">
<stop stop-color="#FFE052"/>
<stop offset="1" stop-color="#FFC331"/>
</linearGradient>
<clipPath id="clip0_1001_63">
<rect width="200.851" height="200.851" fill="white" transform="translate(0.237061 0.511108)"/>
</clipPath>
</defs>
</svg>
