<svg width="202" height="201" viewBox="0 0 202 201" fill="none" xmlns="http://www.w3.org/2000/svg">
<g clip-path="url(#clip0_1001_92)">
<path d="M154.268 0H47.5658C21.5672 0 0.491211 21.076 0.491211 47.0746V153.777C0.491211 179.775 21.5672 200.851 47.5658 200.851H154.268C180.267 200.851 201.343 179.775 201.343 153.777V47.0746C201.343 21.076 180.267 0 154.268 0Z" fill="#242938"/>
<path d="M100.918 115.295C109.002 115.295 115.555 108.741 115.555 100.658C115.555 92.5741 109.002 86.0205 100.918 86.0205C92.8341 86.0205 86.2806 92.5741 86.2806 100.658C86.2806 108.741 92.8341 115.295 100.918 115.295Z" fill="#00D8FF"/>
<path fill-rule="evenodd" clip-rule="evenodd" d="M100.918 70.8967C120.57 70.8967 138.827 73.7166 152.592 78.4555C169.177 84.1652 179.374 92.8198 179.374 100.657C179.374 108.824 168.568 118.018 150.757 123.919C137.292 128.38 119.573 130.709 100.918 130.709C81.7919 130.709 63.6799 128.523 50.0632 123.869C32.8355 117.981 22.4591 108.668 22.4591 100.657C22.4591 92.8834 32.1954 84.2954 48.5474 78.5947C62.364 73.7776 81.0709 70.8967 100.915 70.8967H100.918Z" stroke="#00D8FF" stroke-width="6.99136"/>
<path fill-rule="evenodd" clip-rule="evenodd" d="M75.011 85.8626C84.8291 68.839 96.3914 54.4327 107.374 44.8756C120.605 33.3608 133.197 28.8512 139.986 32.7658C147.06 36.8456 149.626 50.8011 145.841 69.1772C142.981 83.0703 136.144 99.5824 126.824 115.743C117.269 132.312 106.328 146.91 95.4954 156.378C81.7881 168.36 68.5361 172.696 61.5965 168.694C54.8625 164.814 52.2873 152.087 55.5178 135.074C58.2473 120.698 65.0971 103.053 75.0078 85.8626H75.011Z" stroke="#00D8FF" stroke-width="6.99136"/>
<path fill-rule="evenodd" clip-rule="evenodd" d="M75.0354 115.786C65.1897 98.7813 58.4864 81.5661 55.6884 67.2788C52.3203 50.0646 54.7016 36.903 61.484 32.977C68.5518 28.8852 81.9237 33.6317 95.9535 46.0889C106.561 55.5072 117.453 69.6745 126.8 85.8193C136.383 102.372 143.565 119.143 146.359 133.256C149.894 151.116 147.033 164.762 140.099 168.775C133.372 172.67 121.062 168.547 107.935 157.25C96.844 147.707 84.9781 132.961 75.0354 115.786Z" stroke="#00D8FF" stroke-width="6.99136"/>
</g>
<defs>
<clipPath id="clip0_1001_92">
<rect width="200.851" height="200.851" fill="white" transform="translate(0.491211)"/>
</clipPath>
</defs>
</svg>
