<svg width="201" height="201" viewBox="0 0 201 201" fill="none" xmlns="http://www.w3.org/2000/svg">
<g clip-path="url(#clip0_1018_4831)">
<path d="M153.776 0H47.0742C21.0758 0 0 21.0758 0 47.0742V153.776C0 179.774 21.0758 200.85 47.0742 200.85H153.776C179.774 200.85 200.85 179.774 200.85 153.776V47.0742C200.85 21.0758 179.774 0 153.776 0Z" fill="#242938"/>
<path d="M150.606 72.1635V128.658L100.498 156.784L100.038 157.185V178.48L100.498 178.882L171.047 139.868V61.1964H170.374L150.482 71.8477V72.2881" fill="#2F406A"/>
<path d="M49.9112 128.988L100.534 156.951V178.882L29.0291 139.653V61.1964H29.749L49.703 72.2614L49.9138 72.9059V129.234" fill="#2379BD"/>
<path d="M50.0436 72.6175L29.0291 61.0684L100.23 21.968L171.047 60.907L150.577 71.8552L100.14 44.4653L49.959 72.537" fill="#03AFEF"/>
<path d="M99.5964 122.274L99.0448 121.758V100.796L99.5964 100.517V100.001L118.807 89.5007H119.404V111.138L99.4693 122.197" fill="#2F406A"/>
<path d="M79.3507 112.261V89.5007H79.9054L99.5409 100.296V122.77L79.1821 112.259" fill="#2379BD"/>
<path d="M99.3737 78.2023L79.6786 89.623L99.7087 100.922L119.404 89.6661L99.3705 78.0796" fill="#03AFEF"/>
<path d="M75.2378 136.675L74.7129 136.152V114.857L75.2378 114.574V114.051L93.5121 103.405H94.0786V125.343L75.1171 136.554" fill="#2F406A"/>
<path d="M54.8504 126.162V103.405H55.409L75.2095 114.2V136.675L54.8529 126.162" fill="#2379BD"/>
<path d="M74.5873 92.0239L54.8504 103.405L74.8817 114.826L94.5752 103.57L74.5441 91.9839" fill="#03AFEF"/>
<path d="M125.417 137.171L124.866 136.656V115.679L125.417 115.401V114.885L144.629 104.398H145.225V126.009L125.29 137.052" fill="#2F406A"/>
<path d="M105.586 126.654V103.902H106.225L125.859 114.697V137.171L105.5 126.654" fill="#2379BD"/>
<path d="M125.444 92.4801L105.996 103.652L125.778 114.825L145.225 103.814L125.444 92.4801Z" fill="#03AFEF"/>
<path d="M101.086 151.075L100.534 150.551V129.255L101.086 128.973V128.449L120.297 117.805H120.894V139.739L100.958 150.949" fill="#2F406A"/>
<path d="M80.6718 140.523V117.805H81.2304L101.031 128.6V151.075L80.6741 140.521" fill="#2379BD"/>
<path d="M100.635 106.389L80.6718 117.639L100.974 128.729L120.894 117.639L100.633 106.384" fill="#03AFEF"/>
<path d="M99.5964 92.4805L99.0448 91.9557V70.6907L99.5964 70.4071V69.8828L118.807 59.2107H119.404V81.2024L99.5964 92.4805Z" fill="#2F406A"/>
<path d="M79.3507 82.0238V59.2107H79.9054L99.5409 70.0318V92.4805L79.1821 81.9422" fill="#2379BD"/>
<path d="M99.3721 48.2858L79.6786 59.4584L99.7102 70.6311L119.404 59.6204L99.3721 48.2858Z" fill="#03AFEF"/>
<path d="M75.2378 106.384L74.7129 105.855V84.1853L75.2378 83.8997V83.3709L93.5121 72.6177H94.0786V94.777L75.1171 106.101" fill="#2F406A"/>
<path d="M54.8504 95.8738V73.1141H55.409L75.2095 83.9091V106.384L54.8529 95.8715" fill="#2379BD"/>
<path d="M74.5873 61.693L54.8504 72.8056L74.8817 84.0385L94.5752 73.0479L74.5441 61.7347" fill="#03AFEF"/>
<path d="M125.417 107.377L124.866 106.845V85.2468L125.417 84.9589V84.427L144.629 73.6107H145.225V95.9013L125.29 107.292" fill="#2F406A"/>
<path d="M105.996 96.8177V73.6107H106.61L125.362 84.5399V107.377L105.996 96.8177Z" fill="#2379BD"/>
<path d="M125.444 62.195L105.996 73.3627L125.778 84.5353L145.225 73.5247L125.444 62.1901" fill="#03AFEF"/>
<path d="M101.086 120.782L100.534 120.249V98.6835L101.086 98.3956V97.8621L120.297 87.0186H120.894V109.365L101.086 120.785" fill="#2F406A"/>
<path d="M80.6718 110.194V87.0186H81.2304L101.031 98.0135V120.785L80.6718 110.194Z" fill="#2379BD"/>
<path d="M100.656 76.0933L80.6718 87.2457L100.953 98.4384L120.894 87.4081L100.658 76.0982" fill="#03AFEF"/>
</g>
<defs>
<clipPath id="clip0_1018_4831">
<rect width="200.85" height="200.85" fill="white"/>
</clipPath>
</defs>
</svg>
