<svg width="202" height="201" viewBox="0 0 202 201" fill="none" xmlns="http://www.w3.org/2000/svg">
<g clip-path="url(#clip0_1001_141)">
<path d="M154.641 0.0220947H47.9384C21.9399 0.0220947 0.863892 21.0981 0.863892 47.0966V153.799C0.863892 179.798 21.9399 200.874 47.9384 200.874H154.641C180.639 200.874 201.715 179.798 201.715 153.799V47.0966C201.715 21.0981 180.639 0.0220947 154.641 0.0220947Z" fill="#242938"/>
<path fill-rule="evenodd" clip-rule="evenodd" d="M65.9835 86.3257C70.6903 67.4966 82.4604 58.0809 101.289 58.0809C129.534 58.0809 133.065 79.2645 147.187 82.7951C156.603 85.1496 164.84 81.619 171.901 72.2033C167.195 91.0323 155.424 100.448 136.595 100.448C108.351 100.448 104.82 79.2645 90.6977 75.7339C81.282 73.3795 73.0447 76.91 65.9835 86.3257ZM30.6776 128.693C35.3844 109.864 47.1544 100.448 65.9835 100.448C94.2283 100.448 97.7589 121.632 111.881 125.162C121.297 127.517 129.534 123.986 136.595 114.57C131.889 133.399 120.118 142.815 101.289 142.815C73.0447 142.815 69.5141 121.632 55.3918 118.101C45.9761 115.746 37.7388 119.277 30.6776 128.693Z" fill="url(#paint0_linear_1001_141)"/>
</g>
<defs>
<linearGradient id="paint0_linear_1001_141" x1="68.7296" y1="58.0809" x2="129.142" y2="145.561" gradientUnits="userSpaceOnUse">
<stop stop-color="#32B1C1"/>
<stop offset="1" stop-color="#14C6B7"/>
</linearGradient>
<clipPath id="clip0_1001_141">
<rect width="200.851" height="200.851" fill="white" transform="translate(0.863892 0.0220947)"/>
</clipPath>
</defs>
</svg>
