<svg width="202" height="201" viewBox="0 0 202 201" fill="none" xmlns="http://www.w3.org/2000/svg">
<g clip-path="url(#clip0_1001_74)">
<path d="M154.15 0H47.4474C21.4488 0 0.372803 21.076 0.372803 47.0746V153.777C0.372803 179.775 21.4488 200.851 47.4474 200.851H154.15C180.148 200.851 201.224 179.775 201.224 153.777V47.0746C201.224 21.076 180.148 0 154.15 0Z" fill="#007ACC"/>
<path d="M44.7887 101.092L44.7249 109.317H57.7962H70.8674V146.459V183.6H80.1133H89.3587V146.459V109.317H102.43H115.501V101.251C115.501 96.7877 115.406 93.0579 115.278 92.9622C115.182 92.8351 99.2734 92.7707 79.9854 92.8029L44.8843 92.8986L44.7887 101.092Z" fill="white"/>
<path d="M162.44 92.6648C167.541 93.9405 171.431 96.204 175.001 99.9017C176.851 101.879 179.592 105.482 179.816 106.342C179.879 106.597 171.144 112.464 165.852 115.747C165.66 115.875 164.894 115.046 164.034 113.771C161.452 110.009 158.742 108.382 154.597 108.096C148.508 107.681 144.586 110.869 144.619 116.193C144.619 117.756 144.841 118.68 145.479 119.955C146.818 122.729 149.305 124.387 157.116 127.766C171.494 133.952 177.647 138.032 181.473 143.834C185.745 150.306 186.702 160.636 183.8 168.319C180.613 176.672 172.706 182.347 161.579 184.228C158.136 184.834 149.974 184.738 146.276 184.069C138.21 182.634 130.559 178.649 125.841 173.42C123.991 171.38 120.389 166.056 120.612 165.673C120.707 165.546 121.536 165.036 122.461 164.494C123.353 163.984 126.733 162.039 129.921 160.189L135.692 156.842L136.903 158.627C138.593 161.209 142.291 164.749 144.523 165.928C150.931 169.308 159.73 168.829 164.066 164.94C165.915 163.25 166.68 161.496 166.68 158.914C166.68 156.587 166.393 155.567 165.182 153.813C163.62 151.582 160.432 149.7 151.377 145.779C141.016 141.316 136.552 138.542 132.472 134.142C130.113 131.592 127.88 127.511 126.956 124.1C126.191 121.263 126 114.153 126.606 111.284C128.741 101.273 136.297 94.2912 147.201 92.2184C150.74 91.5491 158.965 91.8041 162.44 92.6648Z" fill="white"/>
</g>
<defs>
<clipPath id="clip0_1001_74">
<rect width="200.851" height="200.851" fill="white" transform="translate(0.372803)"/>
</clipPath>
</defs>
</svg>
